<svg width="128" height="128" viewBox="0 0 128 128" fill="none" xmlns="http://www.w3.org/2000/svg">
<g clip-path="url(#clip0_41_34)">
<path d="M100 0H28C12.536 0 0 12.536 0 28V100C0 115.464 12.536 128 28 128H100C115.464 128 128 115.464 128 100V28C128 12.536 115.464 0 100 0Z" fill="#0D1117"/>
<path d="M22.3734 41.5415C18.7477 33.9878 21.3663 23.4127 23.1288 19.0694C27.0315 18.6917 36.7254 19.6736 44.279 26.623C51.8327 33.5724 32.8227 39.4642 22.3734 41.5415Z" fill="white"/>
<path d="M108.017 41.5415C111.643 33.9878 109.024 23.4127 107.262 19.0694C103.359 18.6917 93.6652 19.6736 86.1116 26.623C78.5579 33.5724 97.5679 39.4642 108.017 41.5415Z" fill="white"/>
<ellipse cx="65.309" cy="64.6995" rx="52.309" ry="42.3004" fill="white"/>
<path d="M51.1094 66.2084L59.8694 75.0561L69.7598 65.0668L79.6502 55.0775" stroke="white" stroke-width="21" stroke-linecap="round" stroke-linejoin="round"/>
<path d="M89.335 42.5996C91.2131 40.5753 94.376 40.4569 96.4004 42.3349C98.4247 44.2131 98.5431 47.376 96.665 49.4004L64.1953 84.4004C63.2875 85.3789 62.0255 85.9537 60.6914 85.9971C59.3574 86.0403 58.0611 85.5484 57.0918 84.6308L41.5625 69.9316C39.5571 68.0333 39.4708 64.8677 41.3691 62.8623C43.2675 60.8572 46.4322 60.7707 48.4375 62.6689L60.2988 73.8965L89.335 42.5996Z" fill="#238636"/>
<path d="M99 119C109.493 119 118 110.493 118 100C118 89.5066 109.493 81 99 81C88.5066 81 80 89.5066 80 100C80 110.493 88.5066 119 99 119Z" fill="#F85149"/>
<path d="M99 115C100.657 115 102 113.657 102 112C102 110.343 100.657 109 99 109C97.3431 109 96 110.343 96 112C96 113.657 97.3431 115 99 115Z" fill="white"/>
<path d="M96 90C96 88.3431 97.3431 87 99 87C100.657 87 102 88.3431 102 90V104C102 105.657 100.657 107 99 107C97.3431 107 96 105.657 96 104V90Z" fill="white"/>
</g>
<defs>
<clipPath id="clip0_41_34">
<rect width="128" height="128" fill="white"/>
</clipPath>
</defs>
</svg>
